<?xml version="1.0" standalone="no"?>
<!DOCTYPE svg PUBLIC "-//W3C//DTD SVG 20010904//EN"
 "http://www.w3.org/TR/2001/REC-SVG-20010904/DTD/svg10.dtd">
<svg version="1.0" xmlns="http://www.w3.org/2000/svg"
 width="491.000000pt" height="491.000000pt" viewBox="0 0 491.000000 491.000000"
 preserveAspectRatio="xMidYMid meet">

<g transform="translate(0.000000,491.000000) scale(0.100000,-0.100000)"
fill="#000000" stroke="none">
<path d="M2445 4860 c-22 -10 -49 -27 -61 -37 -33 -29 -104 -128 -182 -255
-145 -234 -174 -262 -321 -307 -58 -18 -144 -50 -192 -71 -57 -24 -98 -36
-116 -33 -83 13 -206 39 -358 75 -150 35 -181 40 -265 36 -119 -4 -153 -22
-194 -98 -43 -79 -39 -135 28 -413 13 -56 29 -138 36 -182 l11 -80 -57 -95
c-62 -103 -105 -192 -148 -310 -17 -44 -39 -85 -55 -98 -14 -12 -112 -77 -218
-143 -146 -92 -206 -135 -252 -184 -74 -79 -85 -114 -65 -193 20 -77 56 -119
145 -168 106 -60 274 -172 328 -220 40 -36 48 -50 65 -115 25 -102 80 -247
132 -350 l43 -86 -19 -94 c-10 -52 -35 -162 -54 -245 -72 -306 -42 -427 120
-474 44 -13 132 1 406 64 59 13 136 27 170 31 63 6 64 6 188 -57 69 -35 167
-79 218 -97 90 -33 94 -36 137 -96 25 -34 92 -138 150 -231 105 -168 190 -270
250 -301 61 -32 180 -6 233 50 32 35 86 113 156 227 80 131 154 233 188 259
14 11 78 36 141 56 63 19 159 53 211 76 115 49 102 49 411 -22 371 -86 482
-65 535 104 13 42 3 113 -50 342 -15 66 -33 151 -39 188 l-12 68 51 85 c62
102 150 285 179 374 24 73 2 55 261 218 163 102 266 188 297 247 9 16 16 49
15 72 0 54 -41 143 -78 172 -67 51 -126 91 -247 167 -183 113 -190 120 -222
234 -32 115 -84 249 -135 348 l-38 73 18 92 c10 51 35 160 55 242 33 133 36
160 32 241 -8 141 -44 200 -144 229 -57 18 -91 13 -326 -41 -133 -31 -262 -54
-302 -54 -16 0 -79 25 -140 55 -60 31 -164 74 -230 98 l-119 42 -56 72 c-30
40 -86 130 -124 200 -153 282 -199 333 -303 333 -26 0 -66 -9 -88 -20z m245
-1047 c469 -75 882 -410 1059 -859 161 -411 115 -876 -126 -1253 l-35 -55 -36
43 c-130 157 -267 230 -472 253 -81 9 -100 9 -133 -5 -49 -21 -73 -73 -57
-122 18 -53 41 -67 130 -76 105 -10 176 -31 249 -74 60 -35 126 -103 158 -162
l17 -32 -54 -48 c-224 -203 -503 -323 -815 -353 -336 -31 -689 76 -985 301
-119 90 -117 85 -72 155 84 130 236 213 390 214 115 0 170 81 114 167 -23 37
-80 48 -175 35 -196 -26 -348 -104 -454 -233 l-57 -70 -18 23 c-37 49 -109
188 -146 283 -312 792 171 1685 1005 1860 168 36 328 38 513 8z"/>
<path d="M2330 3505 c-303 -60 -483 -291 -506 -648 -14 -224 50 -423 215 -668
153 -228 370 -429 462 -429 44 0 150 73 248 170 200 197 345 433 408 660 26
96 23 335 -6 445 -84 321 -309 487 -654 484 -56 0 -131 -7 -167 -14z m257
-196 c96 -13 186 -53 248 -110 54 -50 108 -156 124 -243 18 -99 14 -252 -9
-334 -46 -165 -168 -358 -337 -532 l-111 -115 -104 105 c-113 114 -181 201
-250 319 -88 150 -118 250 -118 391 1 208 66 369 184 449 99 67 222 91 373 70z"/>
<path d="M2009 1626 c-25 -12 -36 -51 -21 -74 5 -7 122 -55 261 -107 l252 -94
256 94 c141 52 258 95 259 95 2 0 8 9 14 19 12 23 -4 66 -27 75 -8 3 -118 -32
-244 -79 -127 -47 -238 -85 -246 -85 -9 0 -72 21 -142 46 -345 126 -336 123
-362 110z"/>
</g>
</svg>
