<?xml version="1.0" standalone="no"?>
<!DOCTYPE svg PUBLIC "-//W3C//DTD SVG 20010904//EN"
 "http://www.w3.org/TR/2001/REC-SVG-20010904/DTD/svg10.dtd">
<svg version="1.0" xmlns="http://www.w3.org/2000/svg"
 width="297.000000pt" height="523.000000pt" viewBox="0 0 297.000000 523.000000"
 preserveAspectRatio="xMidYMid meet">

<g transform="translate(0.000000,523.000000) scale(0.100000,-0.100000)"
fill="#000000" stroke="none">
<path d="M1435 5204 c-195 -27 -340 -85 -474 -189 -162 -125 -270 -290 -327
-505 -27 -99 -25 -304 4 -448 64 -316 222 -729 380 -989 48 -79 49 -83 27 -83
-13 0 -246 27 -519 60 -273 33 -498 60 -501 60 -3 0 -5 -148 -5 -330 l0 -330
33 0 c17 1 307 27 642 59 336 32 613 56 616 52 4 -3 -31 -575 -76 -1271 -45
-696 -80 -1268 -78 -1272 2 -5 167 -8 365 -8 l361 0 -6 62 c-18 196 -159 2479
-154 2485 4 3 276 -19 605 -51 328 -31 605 -57 615 -56 16 0 17 23 17 331 l0
331 -32 -5 c-89 -16 -950 -118 -954 -114 -3 3 17 43 45 89 119 197 253 513
327 770 110 383 96 654 -46 900 -128 222 -335 376 -580 432 -68 16 -233 27
-285 20z m143 -514 c234 -31 422 -232 422 -453 0 -254 -255 -875 -446 -1086
l-37 -42 -29 28 c-16 15 -55 66 -87 113 -217 317 -395 834 -361 1048 32 196
200 362 395 391 33 5 62 9 65 9 3 1 38 -3 78 -8z"/>
</g>
</svg>
